<svg width="120" height="120" viewBox="0 0 120 120" fill="none" xmlns="http://www.w3.org/2000/svg">
<path d="M70 90C70 87.3478 68.9464 84.8043 67.0711 82.9289C65.1957 81.0536 62.6522 80 60 80C57.3478 80 54.8043 81.0536 52.9289 82.9289C51.0536 84.8043 50 87.3478 50 90" fill="black"/>
<path d="M95 55L84.45 21.715C83.9882 20.3857 83.251 19.1688 82.2867 18.144C81.3223 17.1191 80.1525 16.3093 78.8538 15.7675C77.555 15.2257 76.1565 14.9642 74.7497 14.9999C73.343 15.0357 71.9596 15.3679 70.69 15.975L64.31 19.025C62.964 19.6673 61.4914 20.0005 60 20H42.5C40.3217 19.9996 38.2029 20.7104 36.4655 22.0244C34.7282 23.3385 33.4675 25.1838 32.875 27.28L25 55" fill="black"/>
<path d="M10 55H110Z" fill="black"/>
<path d="M35 105C43.2843 105 50 98.2843 50 90C50 81.7157 43.2843 75 35 75C26.7157 75 20 81.7157 20 90C20 98.2843 26.7157 105 35 105Z" fill="black"/>
<path d="M45 90.0016C45 84.4787 40.5229 80.0016 35 80.0016C29.4772 80.0016 25 84.4787 25 90.0016C25.0009 95.5237 29.4777 100.002 35 100.002C40.5223 100.002 44.9992 95.5237 45 90.0016ZM95 90.0016C95 84.4787 90.5229 80.0016 85 80.0016C79.4772 80.0016 75 84.4787 75 90.0016L75.0537 91.0221C75.5658 96.0647 79.8223 100.002 85 100.002C90.5223 100.002 94.9992 95.5237 95 90.0016ZM74.624 10.0016C76.7332 9.94816 78.8291 10.3419 80.7764 11.1539C82.7245 11.9666 84.4812 13.1811 85.9277 14.7184C87.1931 16.0633 88.2011 17.6269 88.8965 19.3326L89.1748 20.0748L89.2139 20.2067L98.6621 50.0016H110C112.761 50.0016 115 52.2401 115 55.0016C114.999 57.7623 112.761 60.0016 110 60.0016H10C7.2391 60.0016 5.00085 57.7623 5 55.0016C5 52.2401 7.23858 50.0016 10 50.0016H21.2207L28.0615 25.9195C28.95 22.7762 30.8425 20.0096 33.4473 18.0387C36.053 16.0678 39.2329 15.0011 42.5 15.0016H60C60.7439 15.0018 61.4816 14.8378 62.1533 14.5182L68.5352 11.4615C70.4388 10.5518 72.5149 10.0552 74.624 10.0016ZM74.8779 19.9967C74.351 20.0101 73.8298 20.1095 73.335 20.2848L72.8467 20.485L66.4648 23.5367C64.698 24.3799 62.7843 24.8689 60.835 24.9772L60 25.0016H42.5C41.411 25.0014 40.351 25.3555 39.4824 26.0123C38.6139 26.6692 37.9818 27.5914 37.6855 28.6393L31.6162 50.0016H88.169L79.7266 23.3561L79.5264 22.8678C79.3028 22.3929 79.0086 21.9528 78.6475 21.569C78.1653 21.0565 77.5781 20.6533 76.9287 20.3824C76.2797 20.1117 75.5809 19.979 74.8779 19.9967ZM105 90.0016C104.999 101.047 96.0452 110.002 85 110.002C74.2987 110.002 65.5589 101.595 65.0244 91.027L65 90.0016L64.9756 89.5035C64.8615 88.3601 64.3546 87.2862 63.5352 86.4664C62.5975 85.5287 61.3261 85.0016 60 85.0016C58.6739 85.0016 57.4025 85.5287 56.4648 86.4664C55.5277 87.404 55 88.6759 55 90.0016L54.9756 91.027C54.4411 101.595 45.7013 110.002 35 110.002C23.9548 110.002 15.0009 101.047 15 90.0016C15 78.9559 23.9543 70.0016 35 70.0016C41.5483 70.0016 47.3576 73.1501 51.0059 78.0143C53.5876 76.0768 56.7344 75.0016 60 75.0016C63.2643 75.0016 66.4081 76.0783 68.9893 78.0143C72.6375 73.1488 78.4506 70.0016 85 70.0016C96.0457 70.0016 105 78.9559 105 90.0016Z" fill="black"/>
</svg>
